<?xml version="1.0" encoding="UTF-8" standalone="no"?>
<svg width="60px" height="60px" viewBox="0 0 60 60" version="1.1" xmlns="http://www.w3.org/2000/svg" xmlns:xlink="http://www.w3.org/1999/xlink" xmlns:sketch="http://www.bohemiancoding.com/sketch/ns">
    <title>bankruptcy</title>
    <description>Created with Sketch (http://www.bohemiancoding.com/sketch)</description>
    <defs></defs>
    <g id="icons" stroke="none" stroke-width="1" fill="none" fill-rule="evenodd" sketch:type="MSPage">
        <g id="bankruptcy" sketch:type="MSArtboardGroup" fill="#FFFFFF">
            <path d="M32.7658485,28.1338061 L32.7658485,45.9438781 C32.7658485,48.0727638 31.9880085,49.9150466 30.4323284,51.4707267 C28.8766483,53.0264068 27.0343655,53.8042468 24.9054798,53.8042468 C22.7765941,53.8042468 20.9343112,53.0264068 19.3786311,51.4707267 C17.8229511,49.9150466 17.045111,48.0727638 17.045111,45.9438781 C17.045111,45.4119432 17.2394277,44.9510859 17.6280611,44.5613061 C18.0166946,44.1715263 18.4775519,43.9772096 19.0106331,43.978356 C19.5437143,43.9795024 20.0045717,44.1738191 20.3932051,44.5613061 C20.7818385,44.9487931 20.9761552,45.4096504 20.9761552,45.9438781 C20.9761552,46.9676233 21.3751063,47.8784471 22.1730085,48.6763493 C22.9709108,49.4742515 23.8817345,49.8732026 24.9054798,49.8732026 C25.929225,49.8732026 26.8400488,49.4742515 27.637951,48.6763493 C28.4358532,47.8784471 28.8348043,46.9676233 28.8348043,45.9438781 L28.8348043,28.1338061 C29.5100406,27.9091095 30.1652146,27.7967612 30.8003264,27.7967612 C31.4354383,27.7967612 32.0906123,27.9091095 32.7658485,28.1338061 L32.7658485,28.1338061 Z M56.3486744,28.9626614 C56.3486744,29.2286288 56.2512294,29.4590575 56.0563395,29.6539474 C55.8614496,29.8488373 55.6310209,29.9462822 55.3650535,29.9462822 C55.1403569,29.9462822 54.9047694,29.8436784 54.658291,29.6384708 C53.6551811,28.6972672 52.7030866,27.9910779 51.8020074,27.5199028 C50.9009281,27.0487278 49.8571207,26.8131403 48.670585,26.8131403 C47.2788418,26.8131403 45.9684937,27.1920292 44.7395408,27.9498071 C43.510588,28.7075849 42.4564628,29.700377 41.5771654,30.9281835 C41.433864,31.1333911 41.2544506,31.4199939 41.0389253,31.7879919 C40.8234,32.1559899 40.6749397,32.4018952 40.5935445,32.5257076 C40.3688479,32.8742166 40.0822451,33.0484711 39.7337361,33.0484711 C39.3657381,33.0484711 39.0688176,32.8742166 38.8429746,32.5257076 C38.7615794,32.4030416 38.6131191,32.1571363 38.3975938,31.7879919 C38.1820685,31.4188475 38.0026551,31.1322447 37.8593537,30.9281835 C36.9789099,29.700377 35.9299436,28.7075849 34.7124548,27.9498071 C33.4949661,27.1920292 32.1897769,26.8131403 30.7968872,26.8131403 C29.4039975,26.8131403 28.0988083,27.1920292 26.8813196,27.9498071 C25.6638308,28.7075849 24.6148645,29.700377 23.7344207,30.9281835 C23.5911193,31.1333911 23.4117059,31.4199939 23.1961806,31.7879919 C22.9806553,32.1559899 22.832195,32.4018952 22.7507998,32.5257076 C22.5261032,32.8742166 22.2291827,33.0484711 21.8600383,33.0484711 C21.5115293,33.0484711 21.2249264,32.8742166 21.0002298,32.5257076 C20.9188346,32.4030416 20.7703744,32.1571363 20.5548491,31.7879919 C20.3393238,31.4188475 20.1599104,31.1322447 20.016609,30.9281835 C19.1361651,29.700377 18.08204,28.7075849 16.8542335,27.9498071 C15.6264271,27.1920292 14.316079,26.8131403 12.9231894,26.8131403 C11.7355073,26.8131403 10.6916999,27.0487278 9.79176703,27.5199028 C8.89183419,27.9910779 7.93973965,28.6972672 6.93548339,29.6384708 C6.69015138,29.8436784 6.45456387,29.9462822 6.22872085,29.9462822 C5.96275344,29.9462822 5.73232478,29.8488373 5.53743487,29.6539474 C5.34254496,29.4590575 5.2451,29.2286288 5.2451,28.9626614 C5.2451,28.8606308 5.2554177,28.7889801 5.2760531,28.7477093 C6.19776775,25.0012373 7.96324108,21.7310992 10.5724731,18.937295 C13.1817051,16.1434908 16.2317322,14.0501438 19.7225545,12.6572542 C23.2133768,11.2643645 26.9036746,10.5684929 30.793448,10.5696393 C33.6594761,10.5696393 36.4693301,10.9789081 39.2230099,11.7974457 C41.9766897,12.6159834 44.4999409,13.7778712 46.7927634,15.2831091 C49.0855859,16.7883471 51.076329,18.7022807 52.7649928,21.0249099 C54.4536566,23.3475391 55.6361798,25.9218055 56.3125624,28.7477093 C56.3331978,28.7889801 56.3435155,28.8606308 56.3435155,28.9626614 L56.3486744,28.9626614 Z M32.7658485,6.63859508 L32.7658485,9.64792462 C31.9060401,9.60665381 31.250866,9.58601841 30.8003264,9.58601841 C30.3497868,9.58601841 29.6946128,9.60665381 28.8348043,9.64792462 L28.8348043,6.63859508 C28.8348043,6.10666026 29.029121,5.64580294 29.4177545,5.25602311 C29.8063879,4.86624329 30.2672452,4.67192658 30.8003264,4.67307299 C31.3334077,4.6742194 31.794265,4.86853611 32.1828984,5.25602311 C32.5715318,5.64351012 32.7658485,6.10436744 32.7658485,6.63859508 L32.7658485,6.63859508 Z" id="Shape" sketch:type="MSShapeGroup"></path>
        </g>
    </g>
</svg>