<?xml version="1.0" encoding="UTF-8" standalone="no"?>
<svg width="25px" height="25px" viewBox="0 0 25 25" version="1.1" xmlns="http://www.w3.org/2000/svg" xmlns:xlink="http://www.w3.org/1999/xlink" xmlns:sketch="http://www.bohemiancoding.com/sketch/ns">
    <title>business_org</title>
    <description>Created with Sketch (http://www.bohemiancoding.com/sketch)</description>
    <defs></defs>
    <g id="icons" stroke="none" stroke-width="1" fill="none" fill-rule="evenodd" sketch:type="MSPage">
        <g id="business_org" sketch:type="MSArtboardGroup" fill="#849296">
            <path d="M10.0966532,6.42204392 L10.0966532,5.62474224 C10.0966532,5.45003023 10.2382825,5.30835417 10.4130412,5.30835417 L14.8385025,5.30835417 C15.0132145,5.30835417 15.1548906,5.4499835 15.1548906,5.62474224 L15.1548906,6.42204392 L16.5566986,6.42204392 L16.5566986,4.99392862 C16.5566986,4.44502732 16.111718,4 15.56277,4 L9.68877376,4 C9.13982574,4 8.69484514,4.4449806 8.69484514,4.99392862 L8.69484514,6.42204392 L10.0966532,6.42204392 L10.0966532,6.42204392 Z M19.4708239,11.4957012 C19.4708239,11.8534426 19.2919999,12.14343 19.0714488,12.14343 C18.8508976,12.14343 18.6720736,11.8534426 18.6720736,11.4957012 C18.6720736,11.1379598 18.8508976,10.8479257 19.0714488,10.8479257 C19.2919999,10.8479257 19.4708239,11.1379598 19.4708239,11.4957012 L19.4708239,11.4957012 Z M3,7.35658261 L3,19.5834326 L22.251497,19.5834326 L22.251497,7.35658261 L3,7.35658261 L3,7.35658261 Z M7.10804517,11.976755 L5.56605633,11.976755 L5.56605633,11.0422163 L7.10804517,11.0422163 L7.10804517,11.976755 L7.10804517,11.976755 Z M9.86493431,11.976755 L8.27621853,11.976755 L8.27621853,11.0422163 L9.86493431,11.0422163 L9.86493431,11.976755 L9.86493431,11.976755 Z M12.6685504,11.976755 L11.0798346,11.976755 L11.0798346,11.0422163 L12.6685504,11.0422163 L12.6685504,11.976755 L12.6685504,11.976755 Z M15.4721664,11.976755 L13.8834507,11.976755 L13.8834507,11.0422163 L15.4721664,11.0422163 L15.4721664,11.976755 L15.4721664,11.976755 Z M18.6417479,12.6809766 L16.7026735,11.976755 L16.7026735,11.0422163 L18.6341781,10.3226215 C19.387463,10.0160461 20.031734,10.6909699 20.035846,11.4771506 C20.039771,12.2555279 19.3970888,12.9586281 18.6417479,12.6809766 L18.6417479,12.6809766 Z" id="briefcase-6-icon" sketch:type="MSShapeGroup"></path>
        </g>
    </g>
</svg>