<?xml version="1.0" encoding="UTF-8" standalone="no"?>
<svg width="60px" height="60px" viewBox="0 0 60 60" version="1.1" xmlns="http://www.w3.org/2000/svg" xmlns:xlink="http://www.w3.org/1999/xlink" xmlns:sketch="http://www.bohemiancoding.com/sketch/ns">
    <title>business_org</title>
    <description>Created with Sketch (http://www.bohemiancoding.com/sketch)</description>
    <defs></defs>
    <g id="icons" stroke="none" stroke-width="1" fill="none" fill-rule="evenodd" sketch:type="MSPage">
        <g id="business_org" sketch:type="MSArtboardGroup" fill="#FFFFFF">
            <path d="M22.5527695,15.6732395 L22.5527695,13.476506 C22.5527695,12.9951377 22.942988,12.6047904 23.424485,12.6047904 L35.6175599,12.6047904 C36.0989281,12.6047904 36.4892754,12.995009 36.4892754,13.476506 L36.4892754,15.6732395 L40.3515509,15.6732395 L40.3515509,11.738482 C40.3515509,10.2261437 39.1255359,9 37.6130689,9 L21.428976,9 C19.916509,9 18.690494,10.226015 18.690494,11.738482 L18.690494,15.6732395 L22.5527695,15.6732395 L22.5527695,15.6732395 Z M48.3805778,29.6522305 C48.3805778,30.6378832 47.8878802,31.4368593 47.2802156,31.4368593 C46.6725509,31.4368593 46.1798533,30.6378832 46.1798533,29.6522305 C46.1798533,28.6665778 46.6725509,27.8674731 47.2802156,27.8674731 C47.8878802,27.8674731 48.3805778,28.6665778 48.3805778,29.6522305 L48.3805778,29.6522305 Z M3,18.2480898 L3,51.9356287 L56.0419162,51.9356287 L56.0419162,18.2480898 L3,18.2480898 L3,18.2480898 Z M14.3185269,30.9776347 L10.070024,30.9776347 L10.070024,28.4027844 L14.3185269,28.4027844 L14.3185269,30.9776347 L14.3185269,30.9776347 Z M21.9143353,30.9776347 L17.5370898,30.9776347 L17.5370898,28.4027844 L21.9143353,28.4027844 L21.9143353,30.9776347 L21.9143353,30.9776347 Z M29.6388862,30.9776347 L25.2616407,30.9776347 L25.2616407,28.4027844 L29.6388862,28.4027844 L29.6388862,30.9776347 L29.6388862,30.9776347 Z M37.3634371,30.9776347 L32.9861916,30.9776347 L32.9861916,28.4027844 L37.3634371,28.4027844 L37.3634371,30.9776347 L37.3634371,30.9776347 Z M46.0962994,32.9179132 L40.7537425,30.9776347 L40.7537425,28.4027844 L46.0754431,26.4201497 C48.1509012,25.5754701 49.926003,27.4350269 49.9373323,29.6011198 C49.9481467,31.7457126 48.1774222,33.6829012 46.0962994,32.9179132 L46.0962994,32.9179132 Z" id="briefcase-6-icon" sketch:type="MSShapeGroup"></path>
        </g>
    </g>
</svg>