<?xml version="1.0" encoding="UTF-8" standalone="no"?>
<svg width="25px" height="25px" viewBox="0 0 25 25" version="1.1" xmlns="http://www.w3.org/2000/svg" xmlns:xlink="http://www.w3.org/1999/xlink" xmlns:sketch="http://www.bohemiancoding.com/sketch/ns">
    <title>criminal_defense</title>
    <description>Created with Sketch (http://www.bohemiancoding.com/sketch)</description>
    <defs></defs>
    <g id="icons" stroke="none" stroke-width="1" fill="none" fill-rule="evenodd" sketch:type="MSPage">
        <g id="criminal_defense" sketch:type="MSArtboardGroup" fill="#849296">
            <path d="M12.5,3.51365187 C14.8615571,5.2135119 16.8841849,5.87538277 19.2484646,6.09347692 L19.2484646,15.0214349 C19.2484646,16.4533259 18.8184744,17.1928765 18.1729389,17.862915 C17.0744742,19.0029132 15.0658647,20.1293564 12.5,21.7042106 C9.93262919,20.1283717 7.92529405,19.0026235 6.82706109,17.862915 C6.18146763,17.1929344 5.75153541,16.4533259 5.75153541,15.0214349 L5.75153541,6.09347692 C8.11581508,5.87544069 10.1384429,5.2135119 12.5,3.51365187 L12.5,3.51365187 Z M12.5,0.567092652 C9.1483012,3.41679837 6.9293597,3.86891653 3.43446602,3.86891653 L3.43446602,15.0214349 C3.43446602,19.5976469 6.73605819,20.7926176 12.5,24.4329073 C18.2639418,20.7926176 21.565534,19.5976469 21.565534,15.0214349 L21.565534,3.86891653 C18.0706403,3.86891653 15.8516988,3.41679837 12.5,0.567092652 L12.5,0.567092652 Z M12.5,19.6685493 C14.5162559,18.444036 16.1157868,17.4932266 16.9215477,16.6571121 C17.2774495,16.2877713 17.5106626,15.9744455 17.5106626,15.0214928 L17.5106626,7.60756591 C15.8230251,7.29099631 14.2194393,6.69064363 12.5,5.60909357 L12.5,19.6685493 L12.5,19.6685493 Z" id="shield-20-icon" sketch:type="MSShapeGroup"></path>
        </g>
    </g>
</svg>