<?xml version="1.0" encoding="UTF-8" standalone="no"?>
<svg width="60px" height="60px" viewBox="0 0 60 60" version="1.1" xmlns="http://www.w3.org/2000/svg" xmlns:xlink="http://www.w3.org/1999/xlink" xmlns:sketch="http://www.bohemiancoding.com/sketch/ns">
    <title>criminal_defense</title>
    <description>Created with Sketch (http://www.bohemiancoding.com/sketch)</description>
    <defs></defs>
    <g id="icons" stroke="none" stroke-width="1" fill="none" fill-rule="evenodd" sketch:type="MSPage">
        <g id="criminal_defense" sketch:type="MSArtboardGroup" fill="#FFFFFF">
            <path d="M30.717233,7.80963264 C36.5218582,11.9878294 41.4934069,13.614685 47.3047241,14.1507528 L47.3047241,36.0953628 C47.3047241,39.614901 46.2478233,41.4326906 44.6611194,43.079622 C41.9611315,45.8816978 37.0240392,48.6504562 30.717233,52.5213928 C24.4067249,48.6480357 19.472765,45.8809859 16.7733466,43.079622 C15.1865004,41.432833 14.1297419,39.614901 14.1297419,36.0953628 L14.1297419,14.1507528 C19.9410591,13.6148274 24.9126078,11.9878294 30.717233,7.80963264 L30.717233,7.80963264 Z M30.717233,0.567092652 C22.478874,7.57157011 17.0247931,8.68286082 8.43446602,8.68286082 L8.43446602,36.0953628 C8.43446602,47.3435327 16.5496647,50.2807289 30.717233,59.2284345 C44.8848014,50.2807289 53,47.3435327 53,36.0953628 L53,8.68286082 C44.409673,8.68286082 38.955592,7.57157011 30.717233,0.567092652 L30.717233,0.567092652 Z M30.717233,47.5178082 C35.6731197,44.5079972 39.6047111,42.1709408 41.5852433,40.1158005 C42.4600376,39.2079735 43.0332672,38.4378298 43.0332672,36.0955052 L43.0332672,17.8723309 C38.885113,17.0942138 34.9435549,15.6185678 30.717233,12.9601554 L30.717233,47.5178082 L30.717233,47.5178082 Z" id="shield-20-icon" sketch:type="MSShapeGroup"></path>
        </g>
    </g>
</svg>