<?xml version="1.0" encoding="UTF-8" standalone="no"?>
<svg width="60px" height="60px" viewBox="0 0 60 60" version="1.1" xmlns="http://www.w3.org/2000/svg" xmlns:xlink="http://www.w3.org/1999/xlink" xmlns:sketch="http://www.bohemiancoding.com/sketch/ns">
    <title>debtors</title>
    <description>Created with Sketch (http://www.bohemiancoding.com/sketch)</description>
    <defs></defs>
    <g id="icons" stroke="none" stroke-width="1" fill="none" fill-rule="evenodd" sketch:type="MSPage">
        <g id="debtors" sketch:type="MSArtboardGroup" fill="#FFFFFF">
            <path d="M44.259233,31.244627 C40.7855825,35.9566852 35.6361942,40.6061416 29.8333981,39.8469668 C28.2612816,42.0380348 26.5108252,45.0948017 24.5636019,48.6464522 L20.0648447,50.0560056 C23.8718252,42.6390639 28.9578544,34.4354328 34.4131845,28.2028794 C32.0507184,29.7385202 28.168767,33.0424134 24.7921748,36.5255299 C21.7457573,30.1737047 24.9566311,24.2906367 29.6120194,19.7978115 C29.4786117,21.9136561 30.420165,23.8445979 31.1241845,24.8376464 C31.0050388,23.0672483 31.2106408,19.9064814 32.5023107,17.1652483 C35.0953689,14.981627 37.3880388,13.4105202 40.008233,12.0350445 C39.5828932,13.5831804 39.9452524,15.4381416 40.4437961,16.5958988 C40.6695922,14.9922289 41.6252816,11.9627241 42.7290194,10.7065202 C45.9978252,8.60001534 50.8355922,6.9170833 56,7.00316097 C55.4288835,10.1788212 53.7602136,15.3366658 51.5030097,18.5369377 C49.6817476,19.7051707 47.2735922,20.3901318 45.3551456,20.718161 C46.9445534,21.1635687 48.7258058,21.2940736 50.2717961,21.1793454 C49.1473592,23.5387823 48.0037379,25.7027144 46.2753689,28.3545882 C43.8929612,29.6829862 40.8486893,30.2682386 38.765534,30.378928 C40.2214078,31.1399959 42.875301,31.585025 44.259233,31.244627 L44.259233,31.244627 Z M16.1023689,46.2558406 L4,46.2558406 L4,50.1014425 L16.1023689,50.1014425 L16.1023689,46.2558406 L16.1023689,46.2558406 Z" id="pen-15-icon" sketch:type="MSShapeGroup"></path>
        </g>
    </g>
</svg>