<?xml version="1.0" encoding="UTF-8" standalone="no"?>
<svg width="25px" height="25px" viewBox="0 0 25 25" version="1.1" xmlns="http://www.w3.org/2000/svg" xmlns:xlink="http://www.w3.org/1999/xlink" xmlns:sketch="http://www.bohemiancoding.com/sketch/ns">
    <title>debtors</title>
    <description>Created with Sketch (http://www.bohemiancoding.com/sketch)</description>
    <defs></defs>
    <g id="icons" stroke="none" stroke-width="1" fill="none" fill-rule="evenodd" sketch:type="MSPage">
        <g id="debtors" sketch:type="MSArtboardGroup" fill="#849296">
            <path d="M18.3624897,13.5764362 C16.9904252,15.437662 14.9564575,17.2741606 12.6643988,16.9742925 C12.0434252,17.8397471 11.3520088,19.0471459 10.582871,20.4500198 L8.80589736,21.0067823 C10.3096246,18.0771489 12.318566,14.8367793 14.4733783,12.37497 C13.5402229,12.9815359 12.0068827,14.2865477 10.6731554,15.6623512 C9.46984457,13.1534304 10.7381144,10.829665 12.576956,9.05503448 C12.524261,9.89077642 12.8961672,10.6534832 13.1742493,11.0457295 C13.1271877,10.3464362 13.2083988,9.09795824 13.7185982,8.01519284 C14.7428358,7.15267964 15.6484223,6.53210486 16.6833783,5.98880281 C16.5153724,6.60030428 16.6585015,7.33299929 16.8554223,7.79030428 C16.94461,7.15686733 17.3220997,5.96023683 17.7580674,5.46404621 C19.0492199,4.63199343 20.9600997,3.96724856 23,4.00124856 C22.7744135,5.25560926 22.1153021,7.29291718 21.2237243,8.55699929 C20.5043402,9.01844211 19.5531378,9.28899636 18.7953666,9.41856527 C19.4231701,9.59449782 20.1267507,9.64604621 20.7374047,9.6007295 C20.293261,10.5326884 19.8415396,11.3874245 19.1588475,12.4348937 C18.2178152,12.9596005 17.0153519,13.1907706 16.192522,13.234492 C16.7675806,13.5351078 17.8158475,13.7108908 18.3624897,13.5764362 L18.3624897,13.5764362 Z M7.24075073,19.5057471 L2.46041056,19.5057471 L2.46041056,21.0247295 L7.24075073,21.0247295 L7.24075073,19.5057471 L7.24075073,19.5057471 Z" id="pen-15-icon" sketch:type="MSShapeGroup"></path>
        </g>
    </g>
</svg>