<?xml version="1.0" encoding="UTF-8" standalone="no"?>
<svg width="60px" height="60px" viewBox="0 0 60 60" version="1.1" xmlns="http://www.w3.org/2000/svg" xmlns:xlink="http://www.w3.org/1999/xlink" xmlns:sketch="http://www.bohemiancoding.com/sketch/ns">
    <title>family_law</title>
    <description>Created with Sketch (http://www.bohemiancoding.com/sketch)</description>
    <defs></defs>
    <g id="icons" stroke="none" stroke-width="1" fill="none" fill-rule="evenodd" sketch:type="MSPage">
        <g id="family_law" sketch:type="MSArtboardGroup" fill="#FFFFFF">
            <path d="M56.9940754,47.5354371 L42.6665,47.5354371 C42.6658267,31.9419213 34.8714254,39.3534837 34.8714254,25.6892445 C34.8714254,20.7567762 38.1005768,18.0795969 42.2470335,18.0795969 C48.373399,18.0795969 52.6371448,23.9291011 46.8355796,34.8671447 C44.9297339,38.4604173 48.8651781,39.3142976 53.0931042,40.2896414 C57.3192797,41.2643118 56.9940754,43.4925341 56.9940754,47.5354371 L56.9940754,47.5354371 Z M33.7196767,38.4212312 C28.4016763,37.1946115 23.4512983,36.1204271 25.8487884,31.600423 C33.1462936,17.842191 27.7830474,10.4842233 20.0769831,10.4842233 C12.2190221,10.4842233 6.98774292,18.1243041 14.3053125,31.600423 C16.7745765,36.1480324 11.6378287,37.2208702 6.43415487,38.4212312 C1.11830904,39.6473122 1.52727205,42.4499949 1.52727205,47.5355717 L38.6268288,47.5355717 C38.6266942,42.4499949 39.0356572,39.6473122 33.7196767,38.4212312 L33.7196767,38.4212312 Z" id="user-13-icon" sketch:type="MSShapeGroup"></path>
        </g>
    </g>
</svg>