<?xml version="1.0" encoding="UTF-8" standalone="no"?>
<svg width="25px" height="25px" viewBox="0 0 25 25" version="1.1" xmlns="http://www.w3.org/2000/svg" xmlns:xlink="http://www.w3.org/1999/xlink" xmlns:sketch="http://www.bohemiancoding.com/sketch/ns">
    <title>family_law</title>
    <description>Created with Sketch (http://www.bohemiancoding.com/sketch)</description>
    <defs></defs>
    <g id="icons" stroke="none" stroke-width="1" fill="none" fill-rule="evenodd" sketch:type="MSPage">
        <g id="family_law" sketch:type="MSArtboardGroup" fill="#849296">
            <path d="M23.4776549,19.8366654 L17.8065382,19.8366654 C17.8062717,13.6644663 14.7211049,16.5980984 14.7211049,11.1895423 C14.7211049,9.23718107 15.9992622,8.17750447 17.6405057,8.17750447 C20.0654334,8.17750447 21.753102,10.4928453 19.4567363,14.8223233 C18.7023676,16.2446064 20.2600885,16.5825879 21.9335791,16.9686468 C23.6063768,17.3544392 23.4776549,18.2364104 23.4776549,19.8366654 L23.4776549,19.8366654 Z M14.2652217,16.2290958 C12.1602598,15.7435773 10.2008095,15.3183954 11.14978,13.529295 C14.0382662,8.08353485 11.9153951,5.1711165 8.86519375,5.1711165 C5.7548689,5.1711165 3.68423278,8.19520039 6.58066084,13.529295 C7.55804074,15.3293221 5.52482191,15.753971 3.46511249,16.2290958 C1.36100336,16.7144012 1.52287841,17.8237543 1.52287841,19.8367187 L16.2075624,19.8367187 C16.2075091,17.8237543 16.3693841,16.7144012 14.2652217,16.2290958 L14.2652217,16.2290958 Z" id="user-13-icon" sketch:type="MSShapeGroup"></path>
        </g>
    </g>
</svg>