<?xml version="1.0" encoding="UTF-8" standalone="no"?>
<svg width="60px" height="60px" viewBox="0 0 60 60" version="1.1" xmlns="http://www.w3.org/2000/svg" xmlns:xlink="http://www.w3.org/1999/xlink" xmlns:sketch="http://www.bohemiancoding.com/sketch/ns">
    <title>google</title>
    <description>Created with Sketch (http://www.bohemiancoding.com/sketch)</description>
    <defs></defs>
    <g id="icons" stroke="none" stroke-width="1" fill="none" fill-rule="evenodd" sketch:type="MSPage">
        <g id="google" sketch:type="MSArtboardGroup" fill="#3DA288">
            <path d="M32.2218641,39.7854029 C32.2218641,42.4391359 30.0667136,44.5123689 25.6054223,44.5123689 C22.1157379,44.5123689 19.5956942,42.3033495 19.5956942,39.6497476 C19.5956942,37.0493592 22.5528495,34.8058689 26.0424029,34.8442718 C29.9141505,34.8444029 32.2218641,37.2556602 32.2218641,39.7854029 L32.2218641,39.7854029 Z M57,30 C57,44.911733 44.911733,57 30,57 C15.088267,57 3,44.911733 3,30 C3,15.088267 15.088267,3 30,3 C44.911733,3 57,15.088267 57,30 L57,30 Z M35.2277767,39.4768689 C35.2277767,37.0270777 34.3130534,35.4264757 31.5452913,33.3527184 C28.7382087,31.305568 28.0523301,30.1490243 30.7316214,28.0774951 C32.2413932,26.9102039 33.2993738,25.354165 33.2993738,23.4329709 C33.2993738,21.3399466 32.4435,19.441034 30.8341165,18.5189709 L33.1152233,18.5189709 L35.0571262,16.480733 L26.3669272,16.480733 C20.9420243,16.480733 18.282,19.7323981 18.282,23.3091117 C18.282,26.964466 20.7895922,29.8433738 25.6862913,29.8433738 C24.9271456,31.3759515 25.2320097,32.7916165 26.4741408,33.8038544 C18.1110874,33.8038544 16.3214854,37.4734951 16.3214854,40.3003689 C16.3214854,43.9630631 20.5317816,46.1406262 25.5805194,46.1406262 C32.4837379,46.1404951 35.2277767,42.4821262 35.2277767,39.4768689 L35.2277767,39.4768689 Z M46.5616165,20.8907767 L42.5523786,20.8907767 L42.5523786,16.8816699 L40.5479563,16.8816699 L40.5479563,20.8907767 L36.5387184,20.8907767 L36.5387184,22.8953301 L40.5479563,22.8953301 L40.5479563,26.9044369 L42.5523786,26.9044369 L42.5523786,22.8953301 L46.5616165,22.8953301 L46.5616165,20.8907767 L46.5616165,20.8907767 Z M29.8075922,23.5637767 C29.4035097,20.4881359 27.3997427,17.9646845 25.0584757,17.894301 C22.7164223,17.8245728 21.1455728,20.1784223 21.5501796,23.2548495 C21.9545243,26.3306214 24.1803204,28.4790874 26.522767,28.549733 C28.864034,28.6194612 30.2115437,26.6398107 29.8075922,23.5637767 L29.8075922,23.5637767 Z" id="google-plus-circle-icon" sketch:type="MSShapeGroup"></path>
        </g>
    </g>
</svg>