<?xml version="1.0" encoding="UTF-8" standalone="no"?>
<svg width="25px" height="25px" viewBox="0 0 25 25" version="1.1" xmlns="http://www.w3.org/2000/svg" xmlns:xlink="http://www.w3.org/1999/xlink" xmlns:sketch="http://www.bohemiancoding.com/sketch/ns">
    <title>google</title>
    <description>Created with Sketch (http://www.bohemiancoding.com/sketch)</description>
    <defs></defs>
    <g id="icons" stroke="none" stroke-width="1" fill="none" fill-rule="evenodd" sketch:type="MSPage">
        <g id="google" sketch:type="MSArtboardGroup" fill="#849296">
            <path d="M13.3640583,16.3054345 C13.3640583,17.3374417 12.5259442,18.143699 10.7909976,18.143699 C9.43389806,18.143699 8.45388107,17.2846359 8.45388107,16.2526796 C8.45388107,15.2414175 9.60388592,14.368949 10.9609345,14.3838835 C12.4666141,14.3839345 13.3640583,15.3216456 13.3640583,16.3054345 L13.3640583,16.3054345 Z M23,12.5 C23,18.2990073 18.2990073,23 12.5,23 C6.70099272,23 2,18.2990073 2,12.5 C2,6.70099272 6.70099272,2 12.5,2 C18.2990073,2 23,6.70099272 23,12.5 L23,12.5 Z M14.5330243,16.185449 C14.5330243,15.2327524 14.1772985,14.6102961 13.1009466,13.803835 C12.0093034,13.0077209 11.7425728,12.5579539 12.7845194,11.7523592 C13.3716529,11.2984126 13.7830898,10.6932864 13.7830898,9.94615534 C13.7830898,9.13220146 13.45025,8.39373544 12.8243786,8.03515534 L13.7114757,8.03515534 L14.4666602,7.24250728 L11.0871383,7.24250728 C8.97745388,7.24250728 7.943,8.50704369 7.943,9.89798786 C7.943,11.3195146 8.91817476,12.4390898 10.8224466,12.4390898 C10.5272233,13.0350922 10.6457816,13.5856286 11.1288325,13.9792767 C7.87653398,13.9792767 7.18057767,15.4063592 7.18057767,16.505699 C7.18057767,17.9300801 8.81791505,18.7769102 10.7813131,18.7769102 C13.4658981,18.7768592 14.5330243,17.3541602 14.5330243,16.185449 L14.5330243,16.185449 Z M18.9406286,8.95752427 L17.3814806,8.95752427 L17.3814806,7.39842718 L16.601983,7.39842718 L16.601983,8.95752427 L15.042835,8.95752427 L15.042835,9.73707282 L16.601983,9.73707282 L16.601983,11.2961699 L17.3814806,11.2961699 L17.3814806,9.73707282 L18.9406286,9.73707282 L18.9406286,8.95752427 L18.9406286,8.95752427 Z M12.4251748,9.99702427 C12.2680316,8.80094175 11.4887888,7.81959951 10.5782961,7.79222816 C9.66749757,7.76511165 9.05661165,8.68049757 9.21395874,9.87688592 C9.37120388,11.0730194 10.2367913,11.908534 11.1477427,11.9360073 C12.0582354,11.9631238 12.582267,11.1932597 12.4251748,9.99702427 L12.4251748,9.99702427 Z" id="google-plus-circle-icon" sketch:type="MSShapeGroup"></path>
        </g>
    </g>
</svg>