<?xml version="1.0" encoding="UTF-8" standalone="no"?>
<svg width="60px" height="60px" viewBox="0 0 60 60" version="1.1" xmlns="http://www.w3.org/2000/svg" xmlns:xlink="http://www.w3.org/1999/xlink" xmlns:sketch="http://www.bohemiancoding.com/sketch/ns">
    <title>menu</title>
    <description>Created with Sketch (http://www.bohemiancoding.com/sketch)</description>
    <defs></defs>
    <g id="icons" stroke="none" stroke-width="1" fill="none" fill-rule="evenodd" sketch:type="MSPage">
        <g id="menu" sketch:type="MSArtboardGroup" fill="#849296">
            <path d="M10.5001249,44 C8.01477455,44 6,46.0197757 6,48.5 C6,50.9852814 8.01220973,53 10.5001249,53 L50.4998751,53 C52.9852254,53 55,50.9802243 55,48.5 C55,46.0147186 52.9877903,44 50.4998751,44 L10.5001249,44 Z M10.5001249,26 C8.01477455,26 6,28.0197757 6,30.5 C6,32.9852814 8.01220973,35 10.5001249,35 L50.4998751,35 C52.9852254,35 55,32.9802243 55,30.5 C55,28.0147186 52.9877903,26 50.4998751,26 L10.5001249,26 Z M10.5001249,8 C8.01477455,8 6,10.0197757 6,12.5 C6,14.9852814 8.01220973,17 10.5001249,17 L50.4998751,17 C52.9852254,17 55,14.9802243 55,12.5 C55,10.0147186 52.9877903,8 50.4998751,8 L10.5001249,8 Z" id="Rectangle-3-copy-2" sketch:type="MSShapeGroup"></path>
        </g>
    </g>
</svg>