<?xml version="1.0" encoding="UTF-8" standalone="no"?>
<svg width="60px" height="60px" viewBox="0 0 60 60" version="1.1" xmlns="http://www.w3.org/2000/svg" xmlns:xlink="http://www.w3.org/1999/xlink" xmlns:sketch="http://www.bohemiancoding.com/sketch/ns">
    <title>pdf</title>
    <description>Created with Sketch (http://www.bohemiancoding.com/sketch)</description>
    <defs></defs>
    <g id="icons" stroke="none" stroke-width="1" fill="none" fill-rule="evenodd" sketch:type="MSPage">
        <g id="pdf" sketch:type="MSArtboardGroup" fill="#849296">
            <path d="M32.3662233,36.1631833 C32.5225534,36.8106347 32.5558677,37.80771 32.317017,38.4614005 C32.0068289,39.309091 31.3922209,39.7391165 30.489909,39.7391165 L28.950034,39.7391165 L28.950034,34.6060036 L30.1518216,34.6060036 C31.2961626,34.6060036 32.0917039,35.0253167 32.3662233,36.1631833 L32.3662233,36.1631833 Z M21.7918107,34.4852245 L20.4693617,34.4852245 L20.4693617,36.7680206 L21.7918107,36.7680206 C22.3600376,36.7680206 22.9224964,36.7015097 23.1872451,36.2186286 C23.3505206,35.9199769 23.3505206,35.3333859 23.1873629,35.0347342 C22.9226141,34.5516177 22.3601553,34.4852245 21.7918107,34.4852245 L21.7918107,34.4852245 Z M38.0101165,5.53555097 L38.0101165,17.3654308 L49.8399964,17.3654308 L38.0101165,5.53555097 L38.0101165,5.53555097 Z M49.885318,21.4839284 L49.885318,54 L10.4065534,54 L10.4065534,5.5 L33.8915012,5.5 L33.8915012,21.4839284 L49.885318,21.4839284 L49.885318,21.4839284 Z M25.2747464,34.5527949 C24.8891007,33.3816141 23.8089163,32.7097949 22.3111845,32.7097949 L18.2710874,32.7097949 L18.2710874,41.6352075 L20.4693617,41.6352075 L20.4693617,38.5433325 L22.3111845,38.5433325 C23.8123301,38.5433325 24.8926323,37.869159 25.2748641,36.693858 C25.5038265,35.989784 25.5038265,35.2492172 25.2747464,34.5527949 L25.2747464,34.5527949 Z M33.5263386,33.8175255 C32.8099041,33.0928507 31.8060012,32.7097949 30.6228131,32.7097949 L26.7519951,32.7097949 L26.7519951,41.6352075 L30.6228131,41.6352075 C31.9246614,41.6352075 32.9528143,41.1985898 33.6793726,40.3377148 C35.0237172,38.7441602 35.1005874,35.4103738 33.5263386,33.8175255 L33.5263386,33.8175255 Z M42.4916578,32.7097949 L36.1266214,32.7097949 L36.1266214,41.6352075 L38.3248956,41.6352075 L38.3248956,38.072341 L41.9360267,38.072341 L41.9360267,36.2967937 L38.3248956,36.2967937 L38.3248956,34.6060036 L42.4916578,34.6060036 L42.4916578,32.7097949 L42.4916578,32.7097949 Z" id="pdf-file-icon" sketch:type="MSShapeGroup"></path>
        </g>
    </g>
</svg>