<?xml version="1.0" encoding="UTF-8" standalone="no"?>
<svg width="25px" height="25px" viewBox="0 0 25 25" version="1.1" xmlns="http://www.w3.org/2000/svg" xmlns:xlink="http://www.w3.org/1999/xlink" xmlns:sketch="http://www.bohemiancoding.com/sketch/ns">
    <title>pdf</title>
    <description>Created with Sketch (http://www.bohemiancoding.com/sketch)</description>
    <defs></defs>
    <g id="icons" stroke="none" stroke-width="1" fill="none" fill-rule="evenodd" sketch:type="MSPage">
        <g id="pdf" sketch:type="MSArtboardGroup" fill="#849296">
            <path d="M13.1037573,14.2479199 C13.1585534,14.4748617 13.1702306,14.8243519 13.0865097,15.0534806 C12.977784,15.3506092 12.7623544,15.5013398 12.4460801,15.5013398 L11.9063301,15.5013398 L11.9063301,13.7021044 L12.3275752,13.7021044 C12.7286845,13.7021044 13.007534,13.8490801 13.1037573,14.2479199 L13.1037573,14.2479199 Z M9.39726214,13.6597694 L8.9337233,13.6597694 L8.9337233,14.4599248 L9.39726214,14.4599248 C9.59643447,14.4599248 9.79358495,14.4366117 9.8863835,14.2673544 C9.94361408,14.1626723 9.94361408,13.9570631 9.88642476,13.8523811 C9.79362621,13.6830413 9.59647573,13.6597694 9.39726214,13.6597694 L9.39726214,13.6597694 Z M15.0820291,3.51246117 L15.0820291,7.65901699 L19.228585,7.65901699 L15.0820291,3.51246117 L15.0820291,3.51246117 Z M19.2444709,9.10261408 L19.2444709,20.5 L5.4065534,20.5 L5.4065534,3.5 L13.6383908,3.5 L13.6383908,9.10261408 L19.2444709,9.10261408 L19.2444709,9.10261408 Z M10.618085,13.6834539 C10.4829102,13.2729369 10.1042888,13.0374539 9.57931068,13.0374539 L8.16319417,13.0374539 L8.16319417,16.165949 L8.9337233,16.165949 L8.9337233,15.082199 L9.57931068,15.082199 C10.1054854,15.082199 10.4841481,14.8458908 10.6181262,14.4339296 C10.6983811,14.1871408 10.6983811,13.9275607 10.618085,13.6834539 L10.618085,13.6834539 Z M13.5103956,13.4257306 C13.2592743,13.1717209 12.9073908,13.0374539 12.492665,13.0374539 L11.1358835,13.0374539 L11.1358835,16.165949 L12.492665,16.165949 C12.948983,16.165949 13.3093665,16.0129078 13.5640364,15.7111578 C14.03525,15.1525922 14.0621942,13.9840485 13.5103956,13.4257306 L13.5103956,13.4257306 Z M16.6528786,13.0374539 L14.421835,13.0374539 L14.421835,16.165949 L15.1923641,16.165949 L15.1923641,14.9171092 L16.4581214,14.9171092 L16.4581214,14.2947524 L15.1923641,14.2947524 L15.1923641,13.7021044 L16.6528786,13.7021044 L16.6528786,13.0374539 L16.6528786,13.0374539 Z" id="pdf-file-icon" sketch:type="MSShapeGroup"></path>
        </g>
    </g>
</svg>