<?xml version="1.0" encoding="UTF-8" standalone="no"?>
<svg width="25px" height="25px" viewBox="0 0 25 25" version="1.1" xmlns="http://www.w3.org/2000/svg" xmlns:xlink="http://www.w3.org/1999/xlink" xmlns:sketch="http://www.bohemiancoding.com/sketch/ns">
    <title>real_estate</title>
    <description>Created with Sketch (http://www.bohemiancoding.com/sketch)</description>
    <defs></defs>
    <g id="icons" stroke="none" stroke-width="1" fill="none" fill-rule="evenodd" sketch:type="MSPage">
        <g id="real_estate" sketch:type="MSArtboardGroup" fill="#849296">
            <path d="M12.5,1 C7.07897087,1 2.68446602,5.39456311 2.68446602,10.815534 C2.68446602,16.3203883 7.45708738,19.9514369 12.5,25 C17.5429126,19.9514369 22.315534,16.3203883 22.315534,10.815534 C22.315534,5.39456311 17.9210291,1 12.5,1 L12.5,1 Z M12.5,17.716 C8.52281553,17.716 5.29860194,14.4917864 5.29860194,10.5146019 C5.29860194,6.53735922 8.52281553,3.31320388 12.5,3.31320388 C16.477301,3.31320388 19.7014563,6.53735922 19.7014563,10.5146019 C19.7014563,14.4917864 16.477301,17.716 12.5,17.716 L12.5,17.716 Z M16.0253204,10.3346019 L16.0253204,13.9432233 L13.5382913,13.9432233 L13.5382913,12.0352816 L11.6499806,12.0352816 L11.6499806,13.9432233 L9.16300971,13.9432233 L9.16300971,10.3346019 L7.97733981,10.3346019 L12.5941942,5.72124272 L17.2111068,10.3346019 L16.0253204,10.3346019 L16.0253204,10.3346019 Z" id="location-11-icon" sketch:type="MSShapeGroup"></path>
        </g>
    </g>
</svg>