<?xml version="1.0" encoding="UTF-8" standalone="no"?>
<svg width="60px" height="60px" viewBox="0 0 60 60" version="1.1" xmlns="http://www.w3.org/2000/svg" xmlns:xlink="http://www.w3.org/1999/xlink" xmlns:sketch="http://www.bohemiancoding.com/sketch/ns">
    <title>real_estate</title>
    <description>Created with Sketch (http://www.bohemiancoding.com/sketch)</description>
    <defs></defs>
    <g id="icons" stroke="none" stroke-width="1" fill="none" fill-rule="evenodd" sketch:type="MSPage">
        <g id="real_estate" sketch:type="MSArtboardGroup" fill="#FFFFFF">
            <path d="M30.4053398,1 C17.3045194,1 6.68446602,11.6201942 6.68446602,24.7208738 C6.68446602,38.0242718 18.218301,46.7993058 30.4053398,59 C42.5923786,46.7993058 54.1262136,38.0242718 54.1262136,24.7208738 C54.1262136,11.6201942 43.5061602,1 30.4053398,1 L30.4053398,1 Z M30.4053398,41.397 C20.7938107,41.397 13.0019612,33.6051505 13.0019612,23.9936214 C13.0019612,14.3819515 20.7938107,6.59024272 30.4053398,6.59024272 C40.0171505,6.59024272 47.8088592,14.3819515 47.8088592,23.9936214 C47.8088592,33.6051505 40.0171505,41.397 30.4053398,41.397 L30.4053398,41.397 Z M38.9248641,23.5586214 L38.9248641,32.2794563 L32.9145437,32.2794563 L32.9145437,27.6685971 L28.3511262,27.6685971 L28.3511262,32.2794563 L22.3409466,32.2794563 L22.3409466,23.5586214 L19.4755777,23.5586214 L30.6329757,12.4096699 L41.7905146,23.5586214 L38.9248641,23.5586214 L38.9248641,23.5586214 Z" id="location-11-icon" sketch:type="MSShapeGroup"></path>
        </g>
    </g>
</svg>