<svg xmlns="http://www.w3.org/2000/svg" xmlns:xlink="http://www.w3.org/1999/xlink" xmlns:sketch="http://www.bohemiancoding.com/sketch/ns" width="126px" height="131px" viewBox="0 0 126 131" version="1.1">
    <title>logo-FDWD.svg</title>
    <description>Created with Sketch (http://www.bohemiancoding.com/sketch)</description>
    <defs/>
    <g id="Page-1" stroke="none" stroke-width="1" fill="none" fill-rule="evenodd" sketch:type="MSPage">
        <g id="FDW&amp;D-Logo-BW" sketch:type="MSLayerGroup" fill="#31826D">
            <path d="M123.8 68.9 L124.7 69.8 L125.7 68.9 L124.7 67.9 L123.8 68.9 L123.8 68.9 ZM119.4 61.4 L119.4 68.4 C118.4 68.3 117.6 68 117 67.2 C118.9 65.7 118.6 65.6 118.6 64.1 L118.7 62 L119.4 61.4 L119.4 61.4 ZM123 67.2 C122.4 67.7 121.2 68.5 119.6 68.4 L119.7 61.6 C120.5 62 120.9 62.1 121.6 62.3 L122.9 61.1 C121.9 61.1 121 60.9 120 60.3 L117.3 62.6 L117.3 65.5 C117.3 66.4 117.2 66.6 116.8 66.9 C116.3 66.2 116.1 65.5 116.1 64.6 C116.1 63.3 116.5 62.4 118 61.2 L117.9 61.1 C116 62 115 63.6 115 65.4 C115 67.9 116.8 69.8 119.1 69.8 C120.7 69.8 122.1 69 123.1 67.4 L123 67.2 L123 67.2 ZM111.9 68.9 L112.8 69.8 L113.8 68.9 L112.8 67.9 L111.9 68.9 L111.9 68.9 ZM111.3 68.4 L111 68.2 L110.4 68.7 C109.7 68.1 108.9 67.9 107.9 67.9 C107.5 67.9 107 67.9 106.3 68.2 L106.5 68 C108.1 66.6 108.5 65.9 108.5 64.6 C108.6 64.1 108.5 63.5 108.4 62.8 C108.4 62.5 108.3 62.2 108.3 62.1 C108.4 61.3 108.8 60.9 109.8 60.7 L109.7 60.4 C109 60.4 108.4 60.6 108 60.8 C107.4 61.2 107.1 61.9 107.1 62.7 C107.1 62.9 107.1 63 107.1 63.2 L107.2 63.9 C107.3 64.3 107.3 64.8 107.3 65 C107.3 66.5 106.7 67.5 105.4 68.4 C106.3 67.2 106.6 66.4 106.6 65.3 C106.6 64.9 106.5 64.3 106.4 63.6 C106.4 63.2 106.3 62.8 106.3 62.6 C106.4 61.8 106.6 61.3 107.5 60.7 L107.4 60.4 C106.9 60.7 106.5 60.8 106.2 60.8 C106 60.8 105.8 60.8 105.3 60.6 C104.9 60.5 104.6 60.4 104.4 60.4 C103.6 60.4 102.9 61.1 102.9 61.9 C102.9 62 102.9 62.2 103 62.4 L103.3 62.3 C103.2 62.2 103.2 62.1 103.2 62 C103.2 61.7 103.4 61.4 103.8 61.4 C104 61.4 104.1 61.4 104.4 61.5 C104.8 61.7 104.9 61.7 105.1 61.7 C105.5 61.7 105.7 61.6 106.3 61.5 C105.5 62.3 105.2 62.8 105.2 63.9 C105.2 64 105.2 64.2 105.2 64.4 C105 64.3 104.9 64.3 104.7 64.3 C104.3 64.3 103.9 64.5 103.6 64.9 L103.8 65 C104 64.9 104.1 64.9 104.4 64.9 C105 64.9 105.3 65.3 105.4 66.1 C105.1 65.9 104.9 65.9 104.7 65.9 C104.4 65.9 104.2 66 103.9 66.3 L104.1 66.4 C104.3 66.4 104.3 66.3 104.4 66.3 C104.9 66.3 105.3 66.8 105.3 67.3 C105.3 68 104.6 68.8 103.4 69.6 L103.6 69.8 C104.8 69.2 105.9 68.8 106.9 68.8 C108 68.8 108.8 69.2 109.7 69.8 L111.3 68.4 L111.3 68.4 ZM100.2 68.9 L101.2 69.8 L102.2 68.9 L101.2 67.9 L100.2 68.9 L100.2 68.9 ZM91.2 64.3 L92.5 63.5 L92.5 65.2 C92.1 64.8 91.8 64.6 91.2 64.3 L91.2 64.3 ZM94.8 63.9 L94.8 61.9 L95.5 61.4 C97 62.1 97.6 62.8 97.6 63.7 C97.7 63.8 97.6 63.8 97.6 63.9 C97.2 64.2 96.6 64.4 96.1 64.4 C95.7 64.4 95.2 64.3 94.7 63.9 L94.8 63.9 ZM94.8 66.2 L94.8 64.3 C95.3 64.6 95.6 64.8 96.1 64.8 C96.6 64.8 97 64.6 97.6 64.3 L97.7 66.1 C97.1 65.8 96.7 65.7 96.3 65.7 C95.8 65.7 95.3 65.9 94.7 66.2 L94.8 66.2 ZM94.8 67.8 L94.8 66.5 C95.3 66.2 95.8 66 96.2 66 C96.7 66 97.1 66.2 97.6 66.5 L97.7 68.6 C96.6 68.1 95.9 67.9 94.7 67.8 L94.8 67.8 ZM93.8 71.2 L93.8 62.5 L94.5 62 L94.5 71.2 L93.8 71.2 L93.8 71.2 ZM92.5 71.5 L94.8 71.5 L94.8 69.1 C95.4 69.2 96.4 69.5 97 69.8 L99 68 L99 63.8 C99 62.4 98.4 61.7 96.5 60.5 L96.4 60.4 L94.8 61.5 L94.8 60.5 L94.5 60.5 L94.5 61.7 L93.8 62.2 C93.8 61.1 93.1 60.4 92 60.4 C91.4 60.4 90.8 60.7 90.2 61.3 L90.5 61.5 C90.8 61.3 91.1 61.2 91.3 61.2 C91.8 61.2 92.1 61.4 92.3 61.8 C92.5 62 92.5 62.3 92.5 62.7 L92.5 63.1 L90.2 64.7 L90.3 64.9 C90.8 65 91.2 65.2 91.7 65.6 C92.2 66.1 92.5 66.7 92.5 67.6 C92.5 67.6 92.5 67.7 92.5 67.8 C91.4 68 90.5 68.6 89.6 69.7 L89.7 69.8 C90.6 69.3 91.4 69 92.5 69 L92.5 71.5 L92.5 71.5 ZM86.1 68.8 L85.1 67.8 L84.2 68.8 L84.3 68.9 C84.7 69.3 84.7 69.5 84.7 69.8 C84.8 70.1 84.6 70.3 84.1 70.7 L84.3 70.9 C85.2 70.6 85.8 69.8 86.1 68.8 L86.1 68.8 ZM80 68.1 L80 64.7 L81 63.9 C81.4 64.3 81.5 64.5 81.5 65.3 L81.5 68.7 L80 68.1 L80 68.1 ZM77.2 68.2 L77.2 64.7 L78.1 63.9 C78.6 64.3 78.6 64.5 78.6 65.2 L78.7 68.8 L77.2 68.2 L77.2 68.2 ZM77.2 64.4 C77.2 63.8 77 63.5 76.4 63 C76.1 62.7 76 62.5 76 62.2 C76 62 76.1 61.7 76.5 61.4 L76.7 61.3 L76.5 61.2 C75.6 61.7 75.1 62.2 75.1 62.9 C75.1 63.2 75.2 63.5 75.5 63.9 C75.9 64.4 75.8 64.4 75.8 65.1 L75.9 67.6 C75.9 68.4 75.8 68.5 75.3 68.7 L75.4 68.8 C76.3 68.9 77.1 69.2 77.7 69.8 C78.2 69.4 78.6 69.2 79.1 69.2 C79.6 69.2 80.1 69.4 80.8 69.8 C81.3 69.3 81.9 69 82.9 68.7 L82.9 65.2 C82.9 63.9 82.7 63.6 81.8 62.9 L80 64.4 C79.9 63.7 79.6 63.3 78.9 62.9 L77.2 64.4 L77.2 64.4 ZM72.8 64.5 L72.8 66.1 L71.5 65.5 L70.4 63.7 L72.8 64.5 L72.8 64.5 ZM72.8 66.4 L72.8 68 L71.9 68.7 C71.3 68.2 71 67.8 71 67.2 C71 66.8 71.1 66.2 71.3 65.8 L72.8 66.4 L72.8 66.4 ZM75 68.7 L74.9 68.5 C74.7 68.7 74.6 68.7 74.5 68.7 C74.4 68.7 74.2 68.6 74.2 68.5 C74.1 68.4 74.1 68.2 74.1 67.7 L74.1 65.3 C74.1 64.2 74.1 64 74.6 63.3 L74.4 63.2 C74.2 63.4 74 63.5 73.8 63.5 C73.4 63.5 72.7 63.3 71.9 62.9 C71.4 63.3 70.9 63.5 70.3 63.5 C70.3 63.5 70.1 63.5 70 63.5 L71.2 65.6 L71 65.7 C70.2 66.6 69.9 67.4 69.9 68 C69.9 68.5 70 69 70.3 69.3 C70.5 69.5 70.6 69.6 70.9 69.8 L72.8 68.4 C72.9 69 72.9 69.3 73.5 69.8 L75 68.7 L75 68.7 ZM69.7 68.4 L69.4 68.2 L68.8 68.7 C68.1 68.1 67.3 67.9 66.3 67.9 C65.9 67.9 65.4 67.9 64.7 68.2 L64.9 68 C66.5 66.6 66.9 65.9 66.9 64.6 C67 64.1 66.9 63.5 66.8 62.8 C66.8 62.5 66.7 62.2 66.7 62.1 C66.8 61.3 67.2 60.9 68.2 60.7 L68.1 60.4 C67.4 60.4 66.8 60.6 66.4 60.8 C65.8 61.2 65.5 61.9 65.5 62.7 C65.5 62.9 65.5 63 65.5 63.2 L65.6 63.9 C65.7 64.3 65.7 64.8 65.7 65 C65.7 66.5 65.1 67.5 63.8 68.4 C64.7 67.2 64.9 66.4 64.9 65.3 C65 64.9 64.9 64.3 64.8 63.6 C64.8 63.2 64.7 62.8 64.7 62.6 C64.8 61.8 65 61.3 65.9 60.7 L65.8 60.4 C65.3 60.7 64.9 60.8 64.6 60.8 C64.4 60.8 64.2 60.8 63.7 60.6 C63.3 60.5 63 60.4 62.8 60.4 C62 60.4 61.3 61.1 61.3 61.9 C61.3 62 61.3 62.2 61.4 62.4 L61.7 62.3 C61.6 62.2 61.6 62.1 61.6 62 C61.6 61.7 61.8 61.4 62.2 61.4 C62.4 61.4 62.5 61.4 62.8 61.5 C63.2 61.7 63.3 61.7 63.5 61.7 C63.9 61.7 64.1 61.6 64.7 61.5 C63.9 62.3 63.6 62.8 63.6 63.9 C63.6 64 63.6 64.2 63.6 64.4 C63.4 64.3 63.3 64.3 63.1 64.3 C62.7 64.3 62.3 64.5 62 64.9 L62.2 65 C62.4 64.9 62.5 64.9 62.8 64.9 C63.4 64.9 63.7 65.3 63.8 66.1 C63.5 65.9 63.3 65.9 63.1 65.9 C62.8 65.9 62.6 66 62.3 66.3 L62.5 66.4 C62.6 66.4 62.7 66.3 62.8 66.3 C63.3 66.3 63.7 66.8 63.7 67.3 C63.7 68 63 68.8 61.8 69.6 L62 69.8 C63.2 69.2 64.3 68.8 65.3 68.8 C66.4 68.8 67.2 69.2 68.1 69.8 L69.7 68.4 L69.7 68.4 ZM55.1 63.7 L55.1 63.9 L55.7 63.9 L55.7 67.4 C55.7 68.3 55.6 68.4 55.2 68.7 L55.3 68.9 C55.9 69 56.4 69.4 56.8 69.8 L58.3 68.6 L58.1 68.4 L57.7 68.8 C57.4 68.5 57.3 68.5 57 68.3 L57.1 63.9 L58.2 63.9 L58.2 63.2 L57.1 63.2 L57.1 61.1 L55.1 63.7 L55.1 63.7 ZM52.6 64.5 L52.6 66.1 L51.3 65.5 L50.3 63.7 L52.6 64.5 L52.6 64.5 ZM52.6 66.4 L52.6 68 L51.7 68.7 C51.1 68.2 50.9 67.8 50.9 67.2 C50.9 66.8 51 66.2 51.2 65.8 L52.6 66.4 L52.6 66.4 ZM54.9 68.7 L54.7 68.5 C54.5 68.7 54.4 68.7 54.3 68.7 C54.2 68.7 54.1 68.6 54 68.5 C54 68.4 53.9 68.2 53.9 67.7 L54 65.3 C54 64.2 54 64 54.4 63.3 L54.3 63.2 C54 63.4 53.9 63.5 53.6 63.5 C53.2 63.5 52.6 63.3 51.8 62.9 C51.3 63.3 50.8 63.5 50.2 63.5 C50.2 63.5 50 63.5 49.8 63.5 L51 65.6 L50.9 65.7 C50.1 66.6 49.7 67.4 49.7 68 C49.8 68.5 49.9 69 50.2 69.3 C50.4 69.5 50.5 69.6 50.8 69.8 L52.6 68.4 C52.7 69 52.8 69.3 53.4 69.8 L54.9 68.7 L54.9 68.7 ZM42.8 65.8 L42.8 64 C43.2 64.3 43.7 64.4 44.2 64.4 C44.4 64.4 44.5 64.4 44.7 64.4 L43.5 66.2 L42.8 65.8 L42.8 65.8 ZM44.6 66.8 L44.6 68.7 C44 68.4 43.6 68.3 43.2 68.3 C42.9 68.3 42.7 68.3 42.3 68.4 L43.8 66.4 L44.6 66.8 L44.6 66.8 ZM41 69.7 L41.2 69.8 C41.6 69.5 42 69.3 42.5 69.3 C43 69.3 43.5 69.5 44 69.8 C44.6 69.3 45.2 69 45.9 68.8 L45.9 66.1 L44.5 65.3 L45.7 63.7 C46.1 63.1 46.2 62.8 46.2 62.4 C46.3 62.1 46.1 61.9 45.8 61.9 C45.6 61.9 45.4 62 45.4 62.3 C45.4 62.4 45.4 62.5 45.5 62.6 C45.7 62.8 45.7 62.8 45.7 63 C45.7 63.2 45.4 63.4 45 63.4 C44.5 63.4 43.9 63.2 43.2 62.9 C42.8 63.5 42.3 63.8 41.4 64.1 L41.5 66.5 L42.7 67.2 L41 69.7 L41 69.7 ZM38 64.8 L38.9 64.1 C39.3 64.6 39.4 65.1 39.4 65.7 C39.4 66.7 38.8 67.9 37.9 68.5 L38 64.8 L38 64.8 ZM35.7 64.1 L35.9 64.3 L36 64.2 C36.1 64.1 36.2 64 36.3 64 C36.4 64 36.4 64.1 36.5 64.2 C36.6 64.3 36.6 64.4 36.6 64.9 L36.6 67.9 C36.6 68.8 36.5 69 36.1 69.6 C35.8 70 35.7 70.2 35.7 70.6 C35.7 71.2 36.2 71.7 37.1 71.7 C38 71.7 38.7 71.3 38.7 71 C38.8 70.8 38.6 70.7 38.5 70.7 C38.3 70.7 38.2 70.7 38 71 C37.8 71.2 37.4 71.4 37 71.4 C36.5 71.4 36 71 36 70.6 C36.1 70.3 36.2 70.1 36.4 69.9 C36.6 69.7 36.8 69.5 37.4 69.1 C38.2 68.7 38.8 68.3 39.3 67.9 C40.3 67.2 40.7 66.2 40.7 65.2 C40.8 64.3 40.4 63.5 39.8 63 L38 64.4 L38 64.3 C38 63.6 37.8 63.3 37.1 62.9 L35.7 64.1 L35.7 64.1 ZM33.3 66.7 L33.3 63.7 L34.7 65.5 L33.3 66.7 L33.3 66.7 ZM35.6 68.5 L35.5 68.3 L34.5 69 C34 68.7 33.8 68.6 33.3 68.4 L33.3 67.1 L35.8 65 L34.2 62.9 C33.3 63.4 32.6 63.8 31.6 64.2 L31.5 64.3 L31.5 64.4 L31.6 64.4 C31.9 64.4 32 64.5 32 65.2 L32 67.6 C32 68.4 31.9 68.6 31.5 68.8 L31.5 69 C32.2 69.1 32.9 69.4 33.6 69.8 L35.6 68.5 L35.6 68.5 ZM25.3 63.9 L25.5 64.1 C25.7 64 25.7 64 25.8 64 C25.9 64 26 64 26 64.1 C26.1 64.3 26.1 64.3 26.1 64.9 L26.1 68.3 L25.6 68.8 L26.8 69.8 L27.9 68.9 L27.5 68.4 L27.5 64.6 L28.4 63.8 L29 64.4 L29 67.8 C29 69 29 69.1 29.6 69.7 L29.8 69.8 L31.2 68.7 L31 68.4 C31 68.4 30.9 68.5 30.9 68.5 C30.8 68.6 30.7 68.7 30.6 68.7 C30.4 68.7 30.3 68.4 30.3 67.6 L30.3 65.3 C30.3 64.3 30.4 64 30.9 63.5 L30.8 63.3 L30.2 63.9 L29.2 62.9 L27.5 64.3 L27.5 64.1 C27.5 63.7 27.3 63.5 26.8 63 L26.7 62.9 L25.3 63.9 L25.3 63.9 ZM20.7 64.1 L20.8 64.3 L21.2 63.9 C21.5 64.2 21.5 64.3 21.5 64.8 L21.5 67.6 C21.5 68.2 21.4 68.5 21 68.7 L21.1 68.8 C21.7 69 22.1 69.3 22.7 69.8 L24.4 68.5 L24.2 68.3 L23.6 68.8 L22.9 68.3 L22.9 64.4 L23.5 64 L24.3 65 L25.2 64.1 L24.2 62.9 L23 64 C22.8 63.5 22.4 63.1 22 62.9 L20.7 64.1 L20.7 64.1 ZM17.2 64 L18.6 64.6 L18.6 68.7 L17.2 68.1 L17.2 64 L17.2 64 ZM20 63.9 C19.1 63.7 18.5 63.4 17.8 62.9 C17.2 63.4 16.6 63.8 15.8 64 L15.9 67.1 C15.9 68.2 15.8 68.4 15.5 68.6 L15.5 68.8 C16.4 68.9 17.1 69.2 17.9 69.8 C18.5 69.4 18.9 69.2 19.9 68.8 L20 63.9 L20 63.9 ZM12.1 63.7 L12.1 63.9 L12.7 63.9 L12.7 67.4 C12.7 68.3 12.6 68.4 12.2 68.7 L12.3 68.9 C12.9 69 13.4 69.4 13.8 69.8 L15.3 68.6 L15.1 68.4 L14.7 68.8 C14.4 68.5 14.3 68.5 14 68.3 L14 63.9 L15.2 63.9 L15.2 63.2 L14 63.2 L14 61.1 L12.1 63.7 L12.1 63.7 ZM8.7 63.7 L8.7 63.9 L9.3 63.9 L9.3 67.4 C9.3 68.3 9.2 68.4 8.8 68.7 L8.9 68.9 C9.5 69 10 69.4 10.4 69.8 L11.9 68.6 L11.7 68.4 L11.3 68.8 C11 68.5 10.9 68.5 10.6 68.3 L10.6 63.9 L11.8 63.9 L11.8 63.2 L10.6 63.2 L10.6 61.1 L8.7 63.7 L8.7 63.7 ZM3.8 63.4 L2 66.1 C1.1 65.4 0.5 64.6 0.5 63.7 C0.6 62.4 1.7 61.4 3.2 61.4 C3.9 61.4 4.4 61.6 4.9 61.9 L4.5 62.4 C4.1 62.3 3.8 62.3 3.5 62.3 C2.7 62.3 2.2 62.7 1.8 63.6 L2.1 63.7 C2.4 63.3 2.6 63.1 3 63.1 C3.3 63.1 3.5 63.2 3.8 63.4 L3.8 63.4 ZM5.6 62.4 L5.8 65.7 L2.6 65.7 L5.2 62 C5.4 62.2 5.4 62.2 5.6 62.4 L5.6 62.4 ZM5.8 66.6 L5.9 67.7 L4.5 68.7 L1.4 67.4 L1.9 66.6 L5.8 66.6 L5.8 66.6 ZM8.3 68.6 L8.1 68.3 C7.8 68.6 7.7 68.6 7.6 68.6 C7.5 68.6 7.3 68.5 7.3 68.4 C7.3 68.3 7.2 68.1 7.2 67.5 L7 62.8 C7 62.7 6.9 62.5 6.9 62.3 C7 61.4 7.1 61.1 8 60.6 L7.9 60.4 C7.3 60.6 7.1 60.7 6.4 61.4 C6 61.1 5.7 60.9 5.5 60.8 C4.9 60.5 4.1 60.3 3.5 60.3 C1.7 60.3 0 61.8 0 63.6 C0 64.6 0.6 65.7 1.7 66.4 L0.8 67.8 C0.2 68.6 0 68.9 0 69.3 C0.1 69.6 0.3 69.9 0.5 69.9 C0.8 69.9 0.9 69.7 0.9 69.5 C0.9 69.4 0.8 69.3 0.7 69.2 C0.6 69 0.6 68.9 0.6 68.8 C0.6 68.7 0.7 68.5 0.9 68.5 C1.1 68.5 1.5 68.7 1.9 68.9 C2.5 69.1 2.8 69.4 3.5 69.9 L5.9 68.1 C5.9 69.2 6 69.4 6.7 69.9 L8.3 68.6 L8.3 68.6 Z" id="Fill-1" sketch:type="MSShapeGroup"/>
            <path d="M113.7 85.8 L114.1 85.6 L113.8 84.8 C114.3 84.4 114.5 84.4 115.3 84.7 L119.6 85.9 C120.6 86.2 120.9 86.5 121.1 87.3 L121.3 87.3 C121.8 86.4 122.5 85.7 123.7 85 L122.5 81.7 L122 81.9 L122.5 83.2 L121.4 84 L115.4 82.2 L115 81.1 L116.9 80.3 L116.1 78.3 L113.7 79.4 L114.8 81.9 C113.9 82 113.2 82.4 112.6 83 L113.7 85.8 L113.7 85.8 ZM115.3 92.5 L111 90.5 L114.6 89.6 L115.3 92.5 L115.3 92.5 ZM119.7 90.2 L119.3 90.3 L119.5 92.3 C118.8 92.9 118.5 93.1 117.8 93.7 L116 92.8 L114.8 87.6 L110.4 88.7 C110.5 90.4 110.5 91.7 110.4 93.5 L110.4 93.8 L110.7 93.8 C110.7 93.7 110.7 93.7 110.7 93.7 C111 93.1 111.1 93.1 112.1 93.6 L115.7 95.2 C116.8 95.8 117.1 96.1 117.1 96.8 L117.4 96.9 C118 96 118.9 95.1 120.1 94.2 L119.7 90.2 L119.7 90.2 ZM107.4 99.8 L107.3 97.8 C108.3 97.8 109.2 98 110 98.6 C111.4 99.5 112.3 101.4 112.3 103.2 L107.4 99.8 L107.4 99.8 ZM104.2 102.3 L104.7 102.3 L104.7 102.1 C104.6 101.8 104.6 101.6 104.7 101.5 C104.9 101.3 105 101.3 105.1 101.3 C105.4 101.2 105.5 101.3 106.2 101.8 L110.3 104.6 C111.5 105.4 111.6 105.6 111.9 106.8 C112.2 107.6 112.4 107.9 112.8 108.3 C113.8 108.9 114.8 108.5 115.7 107.3 C116.6 106 116.9 104.7 116.4 104.4 C116.2 104.2 115.9 104.3 115.7 104.5 C115.6 104.7 115.5 104.9 115.6 105.5 C115.8 106.1 115.6 106.6 115.2 107.2 C114.7 107.9 113.8 108.2 113.2 107.8 C112.9 107.6 112.7 107.2 112.6 106.7 C112.5 106.3 112.5 105.8 112.7 104.5 C112.9 103.1 112.9 101.8 112.8 100.7 C112.8 98.8 112 97.2 110.6 96.2 C109.5 95.5 108.1 95.2 106.8 95.4 L107 99.5 L106.8 99.4 C105.9 98.7 105.2 98.7 104 99.3 L104.2 102.3 L104.2 102.3 ZM98.1 108.4 L98.5 108.4 L98.6 107.5 C99.2 107.4 99.4 107.5 100.1 108.1 L103.3 111.2 C104 112 104.1 112.4 104 113.1 L104.2 113.2 C105 112.7 105.9 112.4 107.3 112.3 L107.7 108.8 L107.3 108.7 L107.1 110.1 L105.7 110.3 L101.3 106 L101.4 104.8 L103.5 104.9 L103.6 102.8 L101 102.6 L100.8 105.4 C100 105.1 99.2 105.1 98.4 105.4 L98.1 108.4 L98.1 108.4 ZM89.5 110.8 L94.5 118.8 C93.5 119.6 93 119.9 92.3 120.6 C92.8 119 92.6 118.2 91.6 116.5 L90.6 114.9 C89.2 112.7 89 112.2 89.2 111 C89.3 110.9 89.3 110.9 89.5 110.8 L89.5 110.8 ZM92 113.8 L90 110.5 C92.2 109.4 93.5 109.1 95.4 111.7 C94.6 113.4 93.6 113.8 92 113.8 L92 113.8 ZM93.7 116.6 L92.3 114.4 C94.2 114.3 95 113.5 95.8 112.2 C96.5 113.1 96.7 113.4 97.3 114.3 C95.5 114.4 94.6 115.1 93.7 116.6 L93.7 116.6 ZM94.9 118.6 L94 117.1 C94.7 115.6 95.7 114.8 97.6 114.8 C98.3 115.7 98.4 116 99 116.9 C97 117.6 96.7 117.7 94.9 118.6 L94.9 118.6 ZM100.9 115.5 C99.3 113 97 109.6 95.2 108.4 C93.3 107 91.4 107.2 88.6 109 C83.4 112.2 82.3 113.8 80.9 112.8 L80.7 112.9 C81.9 114.9 83 115 85.2 113.7 C85.7 113.4 86 113.2 87.6 112.1 C86.1 114.6 86.2 115.7 87.8 118.4 C87.3 118.5 87.1 118.6 86.8 118.8 C86 119.3 85.5 120.2 85.6 121.4 L86.1 121.4 C86.2 120.9 86.3 120.6 86.7 120.4 C87.5 119.9 88.5 120.2 89 121 C89.6 121.9 89.5 123 88.4 125.3 L88.9 125.5 C89.5 124.3 90.1 123 90.3 122.1 C91.1 120 91 119.3 89.8 117.3 L89 116 C87.8 114 87.7 113.8 87.8 112.9 C88 112.3 88.1 111.9 88.6 111.4 C88.6 112.7 88.8 113 90.1 115.2 L90.9 116.5 C91.9 118 92 118.3 92 119 C92.1 121.3 89.8 124.4 89.3 125.6 L89.8 125.8 C91 123.8 92.2 122.6 94.1 121.4 C95.6 120.5 97.2 119.8 99.1 119.2 L100.9 115.5 L100.9 115.5 ZM72.1 126.8 L70.9 120.4 C71.2 120.2 71.2 120.1 71.4 119.9 L73.5 120.9 L74.7 127.5 L72.1 126.8 L72.1 126.8 ZM67.4 118 L70.6 119.5 C70.1 120 69.5 120.4 68.5 120.8 L69.5 125.7 C69.8 127.5 69.7 127.8 69.2 128.5 L69.3 128.7 C70.9 128.5 72 128.7 73.9 129.5 C74.8 128.6 75.4 128.1 76.7 127.3 L77 127.1 L75.8 120.3 C75.6 119.2 75.6 118.8 75.9 118.4 L75.8 118 C75.3 118.3 74.9 118.6 74.7 119.1 L66.9 115.5 L67.4 118 L67.4 118 ZM56.5 120.9 L56.8 121.3 C57.1 121.1 57.2 121 57.3 121 C57.5 121 57.6 121.1 57.7 121.3 C57.9 121.5 57.8 121.6 57.8 122.4 L57.9 128.1 L57 128.9 L59 130.5 L61 128.9 L60.2 128.1 L60.2 122.1 L61.8 120.8 L62.7 121.7 L62.7 127.2 C62.8 129.1 62.8 129.3 63.9 130.3 L64.1 130.5 L66.6 128.6 L66.3 128.2 C66.3 128.2 66.1 128.3 66.1 128.3 C65.9 128.5 65.7 128.6 65.6 128.6 C65.1 128.6 65 128.2 65 126.8 L65 123.1 C65 121.6 65.2 121.1 66.2 120.2 L65.9 119.9 L64.8 120.8 L63.1 119.3 L60.2 121.5 C60.2 121.4 60.1 121.3 60.1 121.3 C60.2 120.5 60 120.2 59 119.5 L58.8 119.3 L56.5 120.9 L56.5 120.9 ZM51.8 120.7 L51.3 123.3 L49.3 121.9 L48.1 118.7 L51.8 120.7 L51.8 120.7 ZM51.2 123.7 L50.7 126.4 L49 127.2 C48.1 126.1 47.8 125.4 48 124.5 C48.2 123.7 48.5 122.9 48.9 122.3 L51.2 123.7 L51.2 123.7 ZM54.2 128.2 L54.1 127.8 C53.7 128 53.5 128 53.3 128 C53.2 127.9 53 127.8 52.9 127.6 C52.9 127.4 52.8 127 53 126.2 L53.8 122.5 C54.1 120.7 54.3 120.4 55.2 119.5 L55 119.2 C54.5 119.5 54.2 119.6 53.8 119.5 C53.1 119.4 52.1 118.9 50.9 117.9 C49.9 118.4 49.1 118.5 48 118.3 C47.9 118.3 47.7 118.2 47.4 118.2 L48.8 121.9 L48.5 122.1 C46.9 123.3 46 124.3 45.8 125.4 C45.7 126.1 45.8 126.9 46.2 127.6 C46.4 127.9 46.6 128.1 47 128.6 L50.5 126.9 C50.5 128 50.6 128.4 51.4 129.5 L54.2 128.2 L54.2 128.2 ZM31.7 118.9 L34.8 113.2 C35.2 113.2 35.2 113.2 35.5 113.1 L36.6 115.2 L33.3 121.1 L31.7 118.9 L31.7 118.9 ZM33.6 109 L35.2 112.3 C34.5 112.4 33.7 112.3 32.7 112 L30.4 116.3 C29.4 118 29.2 118.2 28.4 118.3 L28.3 118.6 C29.7 119.5 30.4 120.3 31.3 122.1 C32.6 122 33.4 122 34.9 122.2 L35.3 122.2 L38.6 116.2 C39.2 115.2 39.4 114.9 40 114.8 L40.1 114.4 C39.5 114.3 39.1 114.4 38.6 114.6 L34.9 106.8 L33.6 109 L33.6 109 ZM25.2 106.2 L25.2 106.6 L26.1 106.6 C26.2 107.2 26.1 107.4 25.6 108.1 L22.8 111.6 C22.2 112.4 21.7 112.6 21 112.5 L20.9 112.7 C21.6 113.4 21.9 114.4 22.1 115.7 L25.7 115.8 L25.7 115.3 L24.3 115.3 L23.9 113.9 L27.8 109.1 L29 109.1 L29.1 111.2 L31.2 111.1 L31.2 108.5 L28.4 108.6 C28.6 107.7 28.5 107 28.1 106.2 L25.2 106.2 L25.2 106.2 ZM21.5 103 L19.5 104.7 L18.7 102.5 L19.8 99.2 L21.5 103 L21.5 103 ZM19.2 105 L17.2 106.8 L15.3 106.5 C15.3 105.1 15.5 104.3 16.2 103.7 C16.8 103.2 17.5 102.8 18.3 102.6 L19.2 105 L19.2 105 ZM19 110.4 L19 110.1 C18.6 109.9 18.4 109.9 18.3 109.8 C18.2 109.6 18.2 109.4 18.2 109.2 C18.3 109 18.5 108.7 19.1 108.2 L22 105.7 C23.4 104.5 23.7 104.3 25 104.1 L25 103.8 C24.4 103.7 24.1 103.6 23.8 103.3 C23.4 102.7 22.9 101.8 22.5 100.3 C21.4 100 20.6 99.6 19.9 98.9 C19.9 98.8 19.7 98.6 19.5 98.4 L18.4 102.1 L18 102.1 C16 102.1 14.7 102.4 13.9 103.1 C13.4 103.6 13 104.4 12.9 105.1 C12.9 105.5 12.9 105.8 12.9 106.4 L16.8 107.2 C16.1 108 15.9 108.5 15.9 109.8 L19 110.4 L19 110.4 ZM10.8 92.9 C11.4 93.3 11.7 93.8 12 94.4 C12.4 95.2 12.5 96 12.5 97 C11.2 97 10.2 96.8 9.5 96.7 C9.4 95.9 9.2 95.5 9 95.1 C8.6 94.2 7.5 93 6.7 92.3 L6 91.8 C6 91.8 5.8 91.7 5.7 91.6 L6.1 91.7 C8.4 92.6 9 92.7 10.7 92.9 L10.8 92.9 ZM14.5 92.3 C14.6 93.3 14.6 93.6 14.9 94.2 C15.3 94.8 15.4 95.1 16.2 95.9 C16.2 96 16.2 96 16.3 96.1 C16.2 96.2 16.1 96.2 16.1 96.2 C15.8 96.4 14.7 96.7 14.1 96.8 C13.7 96.9 13.4 97 13 97 C13 95.8 12.8 95 12.4 94.2 C12.3 93.9 12.1 93.7 11.7 93.1 C11.7 93.1 11.6 93 11.5 92.9 C12.5 92.9 13.5 92.7 14.4 92.3 L14.5 92.3 ZM16.8 90.8 L19.9 92.6 C19.4 93.7 18.1 95.1 16.8 95.9 C16.1 95.2 15.7 94.8 15.4 94.1 C15.1 93.4 14.9 92.9 14.9 92.1 L15.1 91.9 C15.9 91.5 16.3 91.2 16.7 90.8 L16.8 90.8 ZM7.7 87 C8.4 87.5 8.9 88.1 9.2 88.7 C9.6 89.4 9.6 90.2 9.5 91.2 C8.6 91.3 7.4 91.2 6.7 91.1 C6.6 90.5 6.4 90.2 6.2 89.9 C5.8 88.8 4.9 88 3.4 86.9 L3.2 86.7 L3.5 86.7 C5 87 5.8 87 7.4 87 L7.7 87 L7.7 87 ZM11.4 86 C11.3 86.7 11.5 87.5 11.8 88.2 C12.2 88.8 12.8 89.6 13.5 90.1 C13.3 90.3 13.1 90.4 13 90.4 C12.2 90.8 11.3 91 10 91.2 C10.1 89.8 10 89.2 9.6 88.4 C9.4 87.9 9.1 87.7 8.5 87 L8.5 86.9 C9.4 86.8 10.4 86.5 11.1 86.1 C11.2 86.1 11.2 86 11.3 86 L11.4 86 ZM13.6 84.5 L16.9 86.5 C16.5 87.5 15.2 89 14 89.8 C13.3 89.4 12.6 88.7 12.2 87.9 C12 87.3 11.8 86.7 11.8 85.7 C12.4 85.4 13.2 84.9 13.5 84.5 L13.6 84.5 ZM14 84.2 C15.6 82.7 16.1 81 15.4 79.6 C14.9 78.4 13.5 78.1 11.6 78.8 L11.8 79.3 C12.7 79 13.4 79.1 13.6 79.6 C14 80.2 13.6 81.1 12.8 82.1 C12.1 82.9 10.9 83.7 9 84.7 C9.3 84 9.2 83.4 9 82.9 C8.7 82.2 8 81.9 7.1 81.9 L7.1 82.3 C7.4 82.4 7.5 82.6 7.7 82.9 C8.2 83.8 7.6 85 6.5 85.6 C6.1 85.8 5.7 85.9 5.2 85.9 C4.3 86.1 3.2 86.1 2 86 L1.8 85.9 L1.6 86.3 C2.9 87.2 3.6 87.9 4 88.8 C4.5 89.6 4.4 90.3 4.1 91.4 L4.2 91.5 C5.4 92.3 6 92.9 6.4 93.8 C6.9 94.6 6.8 95.2 6.5 96.3 C8.2 97.1 9.8 97.7 11.4 98.2 C14.2 99 16.2 98.9 18 98 C19.7 97.2 21 95.7 22.3 93.5 L17.1 90.4 C18 89.4 18.7 88.4 19.2 87.2 L14 84.2 L14 84.2 Z" id="Fill-2" sketch:type="MSShapeGroup"/>
            <path d="M119.6 46.3 L121.3 47.3 C120.7 48.1 119.9 48.7 119 49 C117.5 49.5 115.4 49.2 114 48.2 L119.6 46.3 L119.6 46.3 ZM119.6 42.5 L119.4 42.8 L119.5 42.9 C119.8 43.1 119.8 43.2 119.9 43.3 C120 43.5 119.9 43.6 119.8 43.7 C119.8 43.9 119.5 44 118.7 44.3 L114.1 45.9 C112.8 46.4 112.5 46.4 111.3 46 C110.6 45.8 110.2 45.7 109.6 45.9 C108.6 46.3 108.2 47.3 108.7 48.7 C109.2 50 110.1 51 110.6 50.8 C110.9 50.7 111 50.5 110.9 50.2 C110.8 50 110.7 49.9 110.2 49.6 C109.7 49.4 109.3 49 109.1 48.4 C108.8 47.5 109.1 46.7 109.8 46.5 C110.2 46.3 110.6 46.4 111 46.6 C111.5 46.8 111.8 47 112.7 47.8 C113.8 48.7 114.8 49.5 115.6 50 C117.3 51 119 51.3 120.5 50.8 C121.8 50.3 122.9 49.4 123.4 48.2 L120.2 46.1 L120.4 46.1 C121.4 45.7 121.8 45.2 122 44 L119.6 42.5 L119.6 42.5 ZM113.5 39.8 L117.7 37.6 L116.2 40.9 L113.5 39.8 L113.5 39.8 ZM112.6 44.4 L112.8 44.1 L111.1 43.2 C111.1 42.3 111 42 111 41.1 L112.8 40.1 L117.6 42.1 L119.5 38.1 C118.1 37.3 117.1 36.6 115.7 35.5 L115.5 35.3 L115.4 35.5 C115.4 35.5 115.4 35.6 115.4 35.6 C115.7 36.1 115.5 36.2 114.6 36.7 L111.1 38.6 C110 39.1 109.5 39.2 109 38.8 L108.8 38.9 C109.1 39.9 109.2 41.2 109.1 42.6 L112.6 44.4 L112.6 44.4 ZM109.3 25.7 L109.2 26.1 C109.5 26.3 109.6 26.3 109.6 26.4 C109.8 26.6 109.8 26.7 109.7 26.9 C109.6 27.1 109.5 27.2 108.8 27.7 L104.4 31.1 L103.2 30.9 L103.1 33.3 L105.5 33.9 L105.6 32.8 L110.5 29.2 L112.4 29.6 L112.2 30.9 L107.8 34.2 C106.3 35.4 106.1 35.5 106 36.9 L106 37.2 L108.9 37.9 L109.1 37.5 C109 37.4 108.9 37.4 108.8 37.4 C108.6 37.3 108.4 37.3 108.3 37.2 C108.1 36.8 108.3 36.5 109.4 35.7 L112.4 33.4 C113.6 32.5 114 32.4 115.3 32.6 L115.5 32.1 L114.1 31.9 L114.3 29.7 L110.9 28.8 C111 28.8 111 28.7 111.1 28.7 C111.7 28.2 111.8 27.9 111.9 26.8 L111.9 26.5 L109.3 25.7 L109.3 25.7 ZM100.9 17.9 L100.9 18.3 C101.2 18.3 101.3 18.4 101.4 18.5 C101.5 18.6 101.5 18.7 101.5 18.9 C101.5 19.1 101.3 19.2 100.8 19.8 L97.1 24 L95.9 24.1 L96.2 26.5 L98.7 26.6 L98.7 25.5 L102.7 21 L104.7 21.1 L104.8 22.3 L101.1 26.5 C99.8 27.9 99.7 28.1 99.8 29.5 L99.8 29.8 L102.8 29.9 L102.9 29.4 C102.8 29.4 102.7 29.4 102.7 29.4 C102.4 29.4 102.2 29.4 102.1 29.2 C101.8 29 102 28.6 102.9 27.6 L105.4 24.8 C106.4 23.7 106.8 23.5 108.1 23.4 L108.2 23 L106.8 23 L106.6 20.8 L103.1 20.6 C103.1 20.5 103.2 20.5 103.2 20.4 C103.8 19.8 103.8 19.5 103.6 18.4 L103.6 18.1 L100.9 17.9 L100.9 17.9 ZM93.7 18.4 L96.3 14.4 L96.6 18 L93.7 18.4 L93.7 18.4 ZM95.3 22.9 L95.3 22.5 L93.4 22.5 C92.9 21.7 92.7 21.5 92.2 20.7 L93.3 19 L98.5 18.3 L98.1 13.9 C96.5 13.9 95.2 13.8 93.5 13.5 L93.3 13.5 L93.2 13.7 C93.2 13.7 93.2 13.8 93.2 13.8 C93.8 14.1 93.7 14.3 93.1 15.2 L91.1 18.5 C90.4 19.6 90 19.8 89.4 19.8 L89.3 20 C90 20.7 90.7 21.7 91.4 23 L95.3 22.9 L95.3 22.9 ZM85.1 6.2 L81.9 15.1 C80.8 14.8 80.2 14.7 79.3 14.6 C80.8 14 81.3 13.3 82 11.4 L82.6 9.7 C83.5 7.2 83.8 6.7 84.7 6.1 C84.9 6.1 84.9 6.2 85 6.2 L85.1 6.2 ZM84.2 10.1 L85.5 6.4 C87.7 7.4 88.7 8.2 87.8 11.3 C86.1 11.8 85.1 11.3 84.2 10.1 L84.2 10.1 ZM83.1 13.1 L84 10.6 C85.1 12 86.2 12.1 87.6 11.9 C87.4 13 87.3 13.3 86.9 14.4 C85.8 13.1 84.8 12.8 83.1 13.1 L83.1 13.1 ZM82.4 15.3 L83 13.6 C84.5 13.3 85.6 13.5 86.7 15 C86.5 16 86.3 16.3 85.9 17.4 C84.4 16.3 84 16.1 82.3 15.3 L82.4 15.3 ZM88.1 17.9 C89.1 15.1 90.3 11.2 90.2 9.1 C90.1 6.7 88.9 5.5 85.9 4.4 C80.5 2.4 78.7 2.6 78.6 0.9 L78.4 0.8 C77.6 3 78.1 4 80.4 4.8 C80.9 4.9 81.3 5.1 83 5.6 C80.2 6 79.5 6.8 78.4 9.8 C78 9.4 77.8 9.3 77.5 9.2 C76.6 8.9 75.7 9.2 74.8 10 L75.1 10.3 C75.6 10.1 75.9 10 76.2 10.2 C77.1 10.4 77.4 11.4 77.1 12.3 C76.8 13.3 75.9 13.9 73.5 14.6 L73.7 15.1 C74.9 14.8 76.2 14.4 77 14.1 C79.1 13.3 79.6 12.7 80.3 10.6 L80.9 9.2 C81.6 7 81.7 6.7 82.5 6.3 C83.1 6 83.4 5.9 84.1 6 C83.2 6.7 82.9 7.1 82.1 9.4 L81.6 10.9 C81 12.6 80.8 12.9 80.3 13.4 C78.7 14.9 75 15.1 73.8 15.5 L74 16 C76.2 15.6 77.8 15.8 79.7 16.4 C81.3 17 82.7 17.8 84.3 18.9 L88.1 17.9 L88.1 17.9 ZM67.2 12.9 L65.7 11.2 L64.1 12.8 L64.2 13 C64.8 13.6 64.9 14 64.9 14.4 C64.9 14.9 64.6 15.2 63.9 15.8 L64.1 16.3 C65.6 15.8 66.7 14.5 67.2 12.9 L67.2 12.9 ZM52.7 5.6 L52.9 5.9 C53.2 5.7 53.3 5.6 53.4 5.6 C53.6 5.6 53.7 5.7 53.8 5.8 C54 6 54 6.1 54 7 L54.6 12.6 L53.8 13.5 L55.8 14.9 L57.6 13.2 L56.7 12.4 L56.2 6.4 L57.6 5 L58.6 5.8 L59 11.3 C59.2 13.2 59.3 13.4 60.3 14.3 L60.6 14.5 L62.8 12.4 L62.5 12 C62.4 12.1 62.3 12.1 62.3 12.2 C62.1 12.4 61.9 12.4 61.8 12.4 C61.4 12.5 61.3 12.1 61.1 10.7 L60.9 7 C60.7 5.5 60.8 5.1 61.7 4.1 L61.4 3.8 L60.4 4.8 L58.7 3.4 L56.1 5.9 C56.1 5.8 56.1 5.7 56.1 5.6 C56.1 4.8 55.8 4.6 54.9 3.9 L54.7 3.7 L52.7 5.6 L52.7 5.6 ZM47.5 3.2 L48 3.1 L49.2 0.2 L47.4 0.6 L47.5 3.2 L47.5 3.2 ZM53 13.5 L52.6 13.2 L52.1 13.9 L51.4 13.5 L49.8 6.9 L50.3 6 L48.2 5 L46.8 6.8 L47.7 7.3 L49 12.6 C49.2 13.7 49.1 14 48.6 14.3 L48.7 14.5 C49.3 14.7 50.4 15.3 51.1 15.8 L53 13.5 L53 13.5 ZM48.1 14.7 L47.7 14.5 L47.3 15 L46.1 14.6 L42.9 5.4 C42.3 3.9 42.3 3.4 43 2.4 L42.8 2.1 C42 2.7 41.3 3.4 40.9 4.3 C40.2 3.9 39.8 3.9 38.9 3.9 L39 4.2 C40 4.4 40.3 4.7 40.8 6.2 L43.7 14.4 C44 15.3 43.9 15.6 43.5 16.1 L43.6 16.4 C44.7 16.3 45.6 16.5 46.6 17 L48.1 14.7 L48.1 14.7 ZM36 16 L34.7 13.5 L35.5 11.4 L37.5 12.1 L36 16 L36 16 ZM37.2 18.4 L36.3 16.5 L36.7 15.3 C37.9 15.5 38.3 15.8 39.2 17 L38.6 18.6 L37.2 18.4 L37.2 18.4 ZM42.7 16.2 L42.3 16 L42 16.7 C41.6 16.5 41.3 16.4 40.9 15.7 L40.5 15.2 C39.8 14.2 39.2 13.8 37.6 13.4 C37.6 13.4 37.5 13.3 37.4 13.3 L38.6 10.3 L35.7 9.3 L34.5 13 L32.6 9.4 C31.9 8.1 31.8 7.8 32.5 6.7 L32.3 6.4 C31.2 7.3 30.8 7.9 30.5 8.9 C29.9 8.7 29.3 8.6 28.6 8.8 L28.6 9.1 C29.7 9.2 30 9.5 30.7 10.8 L34.8 18.5 C35.3 19.5 35.3 19.8 34.8 20.2 L35 20.5 C36.2 20.3 37.1 20.3 38.1 20.7 L39.5 17.4 L39.7 17.6 C40.3 18.4 40.6 18.6 41.4 19 L42.7 16.2 L42.7 16.2 ZM21.7 20.4 L22.1 20.5 C22.3 20.1 22.3 20 22.4 19.9 C22.6 19.9 22.7 19.8 22.9 19.9 C23.1 20 23.1 20.1 23.6 20.8 L27.1 25.3 L26.9 26.4 L29.4 26.6 L30 24.2 L28.8 24 L25.2 19.2 L25.6 17.2 L26.9 17.4 L30.2 21.8 C31.4 23.3 31.5 23.5 32.9 23.6 L33.2 23.6 L34 20.7 L33.5 20.5 C33.5 20.6 33.4 20.7 33.4 20.8 C33.4 21.1 33.3 21.2 33.1 21.3 C32.8 21.5 32.5 21.3 31.7 20.2 L29.5 17.2 C28.5 16 28.3 15.6 28.6 14.3 L28.1 14.2 L27.9 15.6 L25.7 15.3 L24.8 18.7 C24.8 18.7 24.7 18.6 24.6 18.5 C24.2 17.9 23.9 17.8 22.7 17.7 L22.5 17.7 L21.7 20.4 L21.7 20.4 ZM18.5 25 L20.5 26.7 L18.4 27.7 L15.1 26.9 L18.5 25 L18.5 25 ZM20.8 27 L22.8 28.8 L22.7 30.6 C21.4 30.8 20.6 30.6 19.9 30 C19.4 29.5 18.8 28.8 18.5 28.1 L20.8 27 L20.8 27 ZM26 26.8 L25.7 26.8 C25.6 27.2 25.5 27.3 25.4 27.4 C25.4 27.6 25.1 27.6 24.9 27.6 C24.7 27.5 24.4 27.3 23.8 26.8 L21 24.3 C19.7 23.1 19.4 22.7 19.1 21.5 L18.8 21.6 C18.8 22.1 18.7 22.4 18.4 22.7 C18 23.2 17.1 23.7 15.7 24.2 C15.6 25.4 15.3 26 14.7 26.8 C14.6 26.9 14.4 27 14.3 27.2 L18.1 28 L18.2 28.4 C18.4 30.3 18.8 31.5 19.7 32.3 C20.2 32.7 21 33 21.7 33.1 C22.1 33.1 22.4 33 23 32.9 L23.2 29.2 C24.1 29.8 24.5 29.9 25.8 29.8 L26 26.8 L26 26.8 ZM10 35.1 L10.4 35 L10.3 34.2 C10.8 34 11 34.1 11.8 34.6 L15.5 37 C16.4 37.6 16.6 37.9 16.6 38.7 L16.8 38.8 C17.5 38.1 18.3 37.7 19.6 37.4 L19.3 34 L18.8 34 L18.9 35.4 L17.7 35.8 L12.5 32.3 L12.3 31.2 L14.4 31 L14.1 29 L11.6 29.2 L12 31.9 C11.1 31.7 10.3 31.8 9.6 32.2 L10 35.1 L10 35.1 ZM3.7 39.8 L11.5 43 C13 43.7 13.4 44 13.9 45.1 C14.3 45.8 14.5 46.5 14.6 47.5 C13.6 45.4 13.2 45.2 10.6 44.1 L3.7 41.2 C3.7 40.6 3.7 40.5 3.7 39.8 L3.7 39.8 ZM7.3 36.1 L6.2 38.7 L4.1 37.8 C4.7 37.2 5.1 36.8 5.3 36.2 C5.8 34.9 5.2 33.6 3.7 32.9 L3.6 33.2 C4.1 33.9 4.2 34.5 3.9 35.1 C3.7 35.7 3.2 36.2 2 36.9 C2.6 37.7 2.9 38.5 3 39.6 C3.1 40.6 3 41.5 2.6 43 L4.2 43.6 C3.6 45 3.5 45.6 3.7 46.4 C3.9 47.1 4.2 47.6 5.1 48.5 L5.4 48.3 C5.1 47.7 5 47.2 5 46.5 C5 45.8 5.1 45.4 5.6 44.2 L12.1 46.9 C14.4 47.9 14.4 48 14.5 48.5 C13.1 49.6 12.5 50.2 12.2 50.8 C11.9 51.8 12.4 52.9 13.7 53.7 L14 53.3 C13.5 52.9 13.3 52.5 13.5 52.1 C13.7 51.6 15.1 50.4 15.2 50.4 L15.1 46.8 C15.1 44.7 14.9 43.8 14.5 43 C14.2 42.1 13.7 41.8 12.1 41.1 L7.7 39.3 L8.5 37.3 L7.3 36.1 L7.3 36.1 Z" id="Fill-3" sketch:type="MSShapeGroup"/>
        </g>
    </g>
</svg>
